# xmcd CD database file
#
# Track frame offsets:
#	150
#	46414
#	68990
#	102482
#	138422
#	174272
#	195510
#	216945
#	255295
#	279157
#
# Disc length: 4143 seconds
#
# Revision: 0
# Processed by: cddbd v1.5PL3 Copyright (c) Steve Scherf et al.
# Submitted via: CDex 1.51
#
DISCID=8b102d0a
DTITLE=ベートーヴェン／ブラームス　演奏　マーティンロヴェット - ベートーヴェン「街の歌」／ブラームス：クラリネット トリオ　他
DYEAR=2001
DGENRE=Classical
TTITLE0=Allegro con brio 〜 ヴェートーヴェン　ピアノ・クラリネット・チェロの為の三重奏曲変ロ長調
TTITLE1=Adagio 〜 ヴェートーヴェン　ピアノ・クラリネット・チェロの為の三重奏曲変ロ長調
TTITLE2=Tema.Pria ch'io imprgno.Allegretto 〜 ヴェートーヴェン　ピアノ・クラリネット・チェロの為の三重奏曲変ロ長調
TTITLE3=Allegro 〜 ブラームス　ピアノ・クラリネット・チェロの為の三重奏曲イ短調
TTITLE4=Adagio 〜 ブラームス　ピアノ・クラリネット・チェロの為の三重奏曲イ短調
TTITLE5=Andantino grazioso 〜 ブラームス　ピアノ・クラリネット・チェロの為の三重奏曲イ短調
TTITLE6=Allegro 〜 ブラームス　ピアノ・クラリネット・チェロの為の三重奏曲イ短調
TTITLE7=Allegro amablile 〜 ブラームス　クラリネットとピアノの為のソナタ変ホ長調
TTITLE8=Allegro appassionato 〜 ブラームス　クラリネットとピアノの為のソナタ変ホ長調
TTITLE9=Andante con moto-Allegro 〜 ブラームス　クラリネットとピアノの為のソナタ変ホ長調
EXTD=YEAR: 2001
EXTT0=
EXTT1=
EXTT2=
EXTT3=
EXTT4=
EXTT5=
EXTT6=
EXTT7=
EXTT8=
EXTT9=
PLAYORDER=
